<svg width="898" height="845" viewBox="0 0 898 845" fill="none" xmlns="http://www.w3.org/2000/svg">
<path d="M691.408 496.123C721.521 451.996 739.074 399.585 739.074 343.36C739.074 186.974 603.874 59.7656 437.693 59.7656C271.512 59.7656 136.311 186.986 136.311 343.36C136.311 499.721 271.512 626.953 437.693 626.953C497.601 626.953 553.441 610.346 600.41 581.869C666.979 626.066 721.114 645.527 740.113 627.661C759.111 609.776 738.404 558.797 691.399 496.131L691.408 496.123ZM619.358 426.124C646.263 455.572 668.402 483.01 684.182 506.233C707.363 540.349 716.86 565.383 707.484 574.197C698.424 582.722 673.243 574.654 638.775 554.368C615.103 540.429 587.035 520.7 556.783 496.613C531.367 476.361 504.396 453.048 477.201 427.453C390.578 345.943 328.248 266.625 318.909 229.373C318.538 229.67 317.827 229.783 317.777 230.245C317.777 230.245 339.114 364.178 516.555 518.209C492.316 527.923 465.667 533.308 437.704 533.308C326.387 533.308 235.834 448.096 235.834 343.352C235.834 238.605 326.391 153.396 437.704 153.396C549.013 153.396 639.575 238.608 639.575 343.352C639.575 369.508 629.577 403.407 619.37 426.112L619.358 426.124Z" fill="black"/>
</svg>
